<svg width="5000" height="5000" viewBox="0 0 5000 5000" fill="none" xmlns="http://www.w3.org/2000/svg">
<g clip-path="url(#clip0_76_2)">
<circle cx="2500" cy="2500" r="2500" fill="#161616"/>
<path d="M2115.49 1464.19C1370.63 1464.19 892.41 2029.29 922.369 2684.16C936.173 2985.89 1065.8 3492.04 1619.67 3720.85C2156.68 3942.7 2848.74 3734.71 3046.47 3075.24L2987.3 3041.07C2668.23 3774.78 1989.66 3675.17 1765.34 3505.52C1541.02 3335.88 1365.76 3044.5 1365.76 2592.89C1365.76 2070.86 1594.95 1592.64 2127.47 1568.67L2115.49 1464.19Z" fill="white"/>
<path d="M2683.21 1565.3V1768.27C2756.61 1829.69 2859.6 1913.2 2934.5 2204.18H2984.3L2941.24 1609.86C2910.9 1629.71 2885.06 1666.41 2683.21 1565.3Z" fill="white"/>
<path d="M1936.86 1193.81V1245.11C2011.76 1245.11 2203.66 1253.35 2203.66 1591.14V2834.81C2272.01 2709.86 2288.13 2566.68 2598.95 2392.54V1299.41C2598.95 1299.41 2753.47 1295.43 2912.02 1299.41C3165.55 1299.41 3450.63 1370.06 3465.89 1799.94C3471.06 1945.34 3439.3 2154.53 3206 2281.69C3122.41 2327.26 3010.88 2346.53 2868.21 2379.06C2523.31 2457.7 2267.16 2684.27 2218.85 3062.88C2198.97 3218.68 2205.82 3326.79 2199 3397.29C2191.5 3474.81 2165.07 3527.51 2109.87 3556.08C2109.87 3556.08 2203.54 3565.05 2304.98 3548.21C2424.85 3528.32 2550.27 3477.06 2614.31 3426.88L2611.31 3092.09C2611.03 3023.03 2612.42 2903.95 2651.76 2803.73C2701.18 2677.79 2803.6 2572.53 2959.58 2530.73C3320.97 2433.9 3507.46 2660.3 3555.02 2760.66C3577.56 2808.22 3621.31 2903.72 3629.17 3067.37C3636.24 3214.54 3597.33 3358.64 3516.07 3459.46C3455.37 3534.78 3382.27 3589.8 3283.52 3621.24C3153.94 3670.3 2949.19 3667.09 2839 3637.34C2839 3637.34 2802.3 3625.36 2774.96 3610.75C2774.96 3610.75 2734.82 3647.7 2682.46 3684.53C2629.16 3722.02 2558.88 3758.3 2518.81 3774.03H3125.48C3302.49 3784.02 3707.14 3747.67 3909.66 3522.37C4162.82 3240.76 4078.93 2901.47 3989.05 2760.66C3899.18 2619.86 3805.18 2528.11 3607.45 2458.45C3607.45 2458.45 3528.06 2424.75 3365.9 2403.03C3427.7 2389.17 3631.27 2322.36 3759.49 2176.46C3800.2 2133.73 3848.48 2063.25 3874.46 1966C3915.64 1811.85 3906.74 1605.17 3768.11 1446.96C3601.08 1256.35 3323.59 1193.81 3089.16 1193.81H1936.86Z" fill="white"/>
</g>
<defs>
<clipPath id="clip0_76_2">
<rect width="5000" height="5000" fill="white"/>
</clipPath>
</defs>
</svg>
