<svg width="5000" height="5000" viewBox="0 0 5000 5000" fill="none" xmlns="http://www.w3.org/2000/svg">
<path d="M2009.41 1178.06C1058.81 1178.06 448.499 1899.25 486.734 2735C504.35 3120.07 669.78 3766.03 1376.64 4058.05C2061.98 4341.18 2945.19 4075.73 3197.54 3234.1L3122.03 3190.5C2714.83 4126.87 1848.83 3999.74 1562.55 3783.24C1276.27 3566.74 1052.6 3194.87 1052.6 2618.53C1052.6 1952.3 1345.09 1341.98 2024.71 1311.4L2009.41 1178.06Z" fill="white"/>
<path d="M2733.95 1307.1V1566.13C2827.63 1644.51 2959.06 1751.09 3054.64 2122.44H3118.21L3063.24 1363.97C3024.53 1389.3 2991.55 1436.14 2733.95 1307.1Z" fill="white"/>
<path d="M1781.44 832.992V898.468C1877.03 898.468 2121.94 908.982 2121.94 1340.07V2927.27C2209.17 2767.8 2229.74 2585.07 2626.42 2362.84V967.767C2626.42 967.767 2823.61 962.688 3025.96 967.767C3349.52 967.767 3713.33 1057.93 3732.82 1606.55C3739.41 1792.11 3698.89 2059.08 3401.14 2221.37C3294.46 2279.52 3152.13 2304.12 2970.05 2345.63C2529.87 2446 2202.97 2735.14 2141.32 3218.33C2115.95 3417.16 2124.69 3555.14 2115.99 3645.12C2106.42 3744.05 2072.68 3811.3 2002.24 3847.76C2002.24 3847.76 2121.78 3859.21 2251.24 3837.72C2404.22 3812.33 2564.29 3746.92 2646.01 3682.88L2642.19 3255.61C2641.83 3167.47 2643.61 3015.5 2693.8 2887.6C2756.88 2726.88 2887.59 2592.54 3086.66 2539.19C3547.86 2415.62 3785.87 2704.56 3846.57 2832.64C3875.33 2893.34 3931.16 3015.21 3941.2 3224.06C3950.22 3411.89 3900.56 3595.79 3796.86 3724.45C3719.39 3820.58 3626.09 3890.8 3500.07 3930.92C3334.7 3993.53 3073.39 3989.43 2932.77 3951.47C2932.77 3951.47 2885.93 3936.18 2851.04 3917.54C2851.04 3917.54 2799.81 3964.69 2732.99 4011.69C2664.97 4059.54 2575.28 4105.84 2524.14 4125.91H3298.38C3524.28 4138.66 4040.7 4092.27 4299.16 3804.75C4622.24 3445.34 4515.19 3012.34 4400.48 2832.64C4285.78 2652.94 4165.82 2535.85 3913.48 2446.95C3913.48 2446.95 3812.15 2403.94 3605.21 2376.22C3684.07 2358.54 3943.87 2273.27 4107.51 2087.07C4159.46 2032.54 4221.09 1942.59 4254.24 1818.48C4306.79 1621.75 4295.43 1357.99 4118.51 1156.07C3905.35 912.805 3551.21 832.992 3252.02 832.992H1781.44Z" fill="white"/>
</svg>
